<svg xmlns="http://www.w3.org/2000/svg" xmlns:xlink="http://www.w3.org/1999/xlink" width="85.782" height="105.505" viewBox="0 0 85.782 105.505"><defs><style>.a{clip-path:url(#a);}.b{fill:#ffbd59;}.c{clip-path:url(#b);}.d{clip-path:url(#c);}.e{clip-path:url(#d);}</style><clipPath id="a"><path d="M140.25,193.875h62.614v50.092H140.25Zm0,0" transform="translate(-140.25 -193.875)"/></clipPath><clipPath id="b"><path d="M142,61.125h12.94V114.5H142Zm0,0" transform="translate(-142 -61.125)"/></clipPath><clipPath id="c"><path d="M84.75,193h30.994v7.514H84.75Zm0,0" transform="translate(-84.75 -193)"/></clipPath><clipPath id="d"><path d="M172,70h12.419v44.248H172Zm0,0" transform="translate(-172 -70)"/></clipPath></defs><g transform="translate(-84.75 -61.125)"><g class="a" transform="translate(107.917 116.539)"><path class="b" d="M173.016,240.7l9.33-34.357H201Zm-1.347.284-9.408-34.64h18.817Zm-29.331-34.64h18.654l9.33,34.357Zm49.748-10.935,8.822,9.71H183.262Zm-20.417,0,8.822,9.71H162.848Zm-20.416,0,8.823,9.71H142.431Zm10.209,9.412-8.823-9.71h17.645Zm20.415,0-8.822-9.71H190.7Zm21.017.967a.554.554,0,0,0-.044-.293c0-.01,0-.02,0-.024s-.025-.025-.034-.039a.466.466,0,0,0-.068-.113l-10.2-11.231c-.005,0-.01-.005-.015-.005a.615.615,0,0,0-.439-.2H151.253a.606.606,0,0,0-.439.2c-.005,0-.01.005-.015.005l-10.2,11.231a.455.455,0,0,0-.069.113c-.01.015-.024.025-.034.039s0,.015,0,.024a.609.609,0,0,0-.044.293c0,.02.01.039.01.059a.59.59,0,0,0,.1.228c.01.015.01.029.02.044l30.619,37.588a.952.952,0,0,0,.083.086.615.615,0,0,0,.174.1h0a.641.641,0,0,0,.215.039.667.667,0,0,0,.22-.039.536.536,0,0,0,.17-.1.432.432,0,0,0,.088-.086l30.619-37.588c.01-.015.01-.029.02-.044a.676.676,0,0,0,.1-.228c0-.02.01-.039.01-.059" transform="translate(-140.362 -193.882)"/></g><path class="b" d="M158.042,187.694a5.1,5.1,0,0,0,1.362-1.858,21.985,21.985,0,0,0,1.037-3.76c.835-3.132,3.83-5.89,7.023-3.658.379.264.291.387-.127.391a6.461,6.461,0,0,0-2.422.395,6.3,6.3,0,0,0-3.215,3.63c-.779,2.1-1.952,5.648-4.761,5.6C156.995,188.08,157.709,187.965,158.042,187.694Zm0,0" transform="translate(-42.055 -67.86)"/><g class="c" transform="translate(108.648 61.125)"><path class="b" d="M154.868,102.3a32.67,32.67,0,0,1-4.409,11.856,41.842,41.842,0,0,0,3.168-12.957,35.269,35.269,0,0,0-2.508-14.631c-1.67-4.241-4.279-7.983-6.2-12.109-1.972-4.249-3.4-9.389-.078-13.33-2.426,4.044-.9,8.381,1.142,12.267,2.389,4.551,5.647,8.658,7.244,13.6A33.96,33.96,0,0,1,154.868,102.3Zm0,0" transform="translate(-142.5 -61.125)"/></g><path class="b" d="M126.158,97.033c-1.052,2.345-3.109,3.967-4.937,5.681a11.175,11.175,0,0,0-3.766,6.35c-.794,4.287,1.868,8.3,4.761,11.2a44.635,44.635,0,0,0,10.932,7.68,38.3,38.3,0,0,1-11.967-7.257c-3.049-2.854-5.766-7.049-5.091-11.423a11.119,11.119,0,0,1,3.134-6.341c1.771-1.817,3.961-3.224,5.467-5.3,2.594-3.574,2.208-8.693,1.7-12.828C127.327,88.775,127.888,93.171,126.158,97.033Zm0,0" transform="translate(-18.197 -13.791)"/><g class="d" transform="translate(84.75 116.174)"><path class="b" d="M92.851,198.055a20.726,20.726,0,0,0,8.6,1.459c5.106-.088,10.511-3.089,14.136-6.506-3.134,4.034-8.81,7.256-14,7.463a19.053,19.053,0,0,1-9.252-1.766,29.831,29.831,0,0,1-7.455-5.506A39.387,39.387,0,0,0,92.851,198.055Zm0,0" transform="translate(-84.83 -193.005)"/></g><path class="b" d="M111.418,177.594c2.059,1.65,4.667,3.259,7.351,3.522-2.76.206-5.741-1.216-7.882-2.847-2.022-1.539-5.221-4.766-8.02-3.127-1.182.691-1.443,2.271-1.623,3.478-.21,1.432-.292,3.194-1.2,4.386-1.691,2.209-5.148.127-6.868-.995,1.983.941,5.872,2.845,6.764-.323.639-2.265-.011-6.193,2.584-7.414C105.965,172.651,108.92,175.591,111.418,177.594Zm0,0" transform="translate(-4.906 -65.643)"/><g class="e" transform="translate(121.171 64.83)"><path class="b" d="M172.867,114.7c7.126-5.736,8.753-15.512,8.97-24.141.087-3.278-.159-6.542-.342-9.811-.184-2.951-1.107-9.514,3.395-9.764-4.446,1.115-2.166,8.363-1.753,11.395a56.792,56.792,0,0,1,.478,9.733C183.3,100.673,180.753,110.154,172.867,114.7Zm0,0" transform="translate(-172.505 -70.576)"/></g><path class="b" d="M170.57,106.617a20.626,20.626,0,0,0,5.562-5.316,19.309,19.309,0,0,0,2.971-7.036C179.855,99.65,176.108,105.572,170.57,106.617Zm0,0" transform="translate(-49.996 -19.307)"/></g></svg>